<?xml version="1.0" encoding="iso-8859-1"?>
<!-- Generator: Adobe Illustrator 19.0.0, SVG Export Plug-In . SVG Version: 6.00 Build 0)  -->
<svg version="1.1" id="Capa_1" xmlns="http://www.w3.org/2000/svg" xmlns:xlink="http://www.w3.org/1999/xlink" x="0px" y="0px"
	 viewBox="0 0 512 512" style="enable-background:new 0 0 512 512;" xml:space="preserve">
<path style="fill:#CDD6E0;" d="M438.4,388.267H21.333C9.6,388.267,0,378.667,0,366.933V145.067c0-11.733,9.6-21.333,21.333-21.333
	H438.4c11.733,0,21.333,9.6,21.333,21.333v220.8C459.733,378.667,450.133,388.267,438.4,388.267z"/>
<rect x="32" y="155.733" style="fill:#FFFFFF;" width="395.733" height="199.467"/>
<path style="fill:#CDD6E0;" d="M459.733,338.133h30.933c11.733,0,21.333-9.6,21.333-21.333V195.2c0-11.733-9.6-21.333-21.333-21.333
	h-30.933V338.133z"/>
<g>
	<rect x="53.333" y="177.067" style="fill:#FF7058;" width="72.533" height="156.8"/>
	<rect x="147.2" y="177.067" style="fill:#FF7058;" width="72.533" height="156.8"/>
	<rect x="240" y="177.067" style="fill:#FF7058;" width="72.533" height="156.8"/>
</g>
<rect x="333.867" y="177.067" style="fill:#FFD15C;" width="72.533" height="156.8"/>
<g>
</g>
<g>
</g>
<g>
</g>
<g>
</g>
<g>
</g>
<g>
</g>
<g>
</g>
<g>
</g>
<g>
</g>
<g>
</g>
<g>
</g>
<g>
</g>
<g>
</g>
<g>
</g>
<g>
</g>
</svg>
