<?xml version="1.0" encoding="iso-8859-1"?>
<!-- Generator: Adobe Illustrator 19.0.0, SVG Export Plug-In . SVG Version: 6.00 Build 0)  -->
<svg version="1.1" id="Layer_1" xmlns="http://www.w3.org/2000/svg" xmlns:xlink="http://www.w3.org/1999/xlink" x="0px" y="0px"
	 viewBox="0 0 512 512" style="enable-background:new 0 0 512 512;" xml:space="preserve">
<path style="fill:#F7CE4D;" d="M40.21,378.421H7.604V97.136c0-16.83,13.636-30.467,30.456-30.467h343.892
	c12.288,0,22.822,8.77,25.052,20.845l18.959,102.339l53.948,18.827c14.66,5.12,24.485,18.949,24.485,34.471v135.269h-35.881"/>
<g>
	<circle style="fill:#4D4D4D;" cx="107.114" cy="378.424" r="66.912"/>
	<circle style="fill:#4D4D4D;" cx="401.611" cy="378.424" r="66.912"/>
</g>
<g>
	<circle style="fill:#B3B3B3;" cx="107.114" cy="378.424" r="38.039"/>
	<circle style="fill:#B3B3B3;" cx="401.611" cy="378.424" r="38.039"/>
</g>
<polygon style="fill:#9ACAEF;" points="397.089,189.853 305.822,189.853 305.822,95.057 379.539,95.057 "/>
<polygon style="fill:#EF5959;" points="260.598,192.893 183.658,115.954 183.658,156.396 66.563,156.396 66.563,229.39 
	183.658,229.39 183.658,269.832 "/>
<path d="M482.417,201.501l-49.781-17.373l-18.154-97.996c-2.897-15.684-16.578-27.068-32.53-27.068h-256.74
	c-4.199,0-7.604,3.405-7.604,7.604c0,4.199,3.405,7.604,7.604,7.604h256.74c8.618,0,16.01,6.149,17.575,14.626l18.959,102.339
	c0.497,2.684,2.395,4.895,4.971,5.794l53.946,18.826c11.598,4.051,19.389,15.018,19.389,27.293v127.665h-21.056
	c-3.82-37.53-35.609-66.913-74.13-66.913s-70.309,29.382-74.131,66.913H181.246c-3.82-37.53-35.609-66.913-74.131-66.913
	s-70.31,29.382-74.131,66.913H15.208v-68.189c0-4.199-3.405-7.604-7.604-7.604S0,298.429,0,302.628v75.792
	c0,4.199,3.405,7.604,7.604,7.604h25.382c3.821,37.529,35.61,66.911,74.13,66.911s70.308-29.382,74.131-66.911h146.23
	c3.821,37.529,35.609,66.911,74.131,66.911s70.308-29.382,74.13-66.911h28.658c4.199,0,7.604-3.405,7.604-7.604V243.151
	C512,224.42,500.111,207.682,482.417,201.501z M107.116,437.728c-32.681,0-59.27-26.57-59.306-59.242
	c0-0.022,0.003-0.043,0.003-0.065s-0.003-0.044-0.003-0.066c0.035-32.673,26.625-59.243,59.306-59.243
	c32.702,0,59.308,26.606,59.308,59.308C166.423,411.122,139.819,437.728,107.116,437.728z M401.607,437.728
	c-32.7,0-59.303-26.602-59.307-59.301c0-0.002,0-0.004,0-0.006s0-0.005,0-0.007c0.003-32.699,26.608-59.302,59.307-59.302
	c32.691,0,59.29,26.589,59.307,59.275c0,0.011-0.002,0.021-0.002,0.032c0,0.011,0.002,0.021,0.002,0.032
	C460.895,411.141,434.298,437.728,401.607,437.728z"/>
<path d="M7.604,284.885c4.199,0,7.604-3.405,7.604-7.604V97.136c0-12.606,10.251-22.863,22.852-22.863h61.805
	c4.199,0,7.604-3.405,7.604-7.604s-3.405-7.604-7.604-7.604H38.06C17.073,59.065,0,76.144,0,97.136v180.146
	C0,281.482,3.405,284.885,7.604,284.885z"/>
<path d="M107.116,332.777c-25.168,0-45.643,20.475-45.643,45.643c0,25.168,20.475,45.643,45.643,45.643
	c25.167,0,45.643-20.475,45.643-45.643C152.758,353.253,132.284,332.777,107.116,332.777z M107.116,408.855
	c-16.782,0-30.435-13.653-30.435-30.435c0-16.781,13.653-30.435,30.435-30.435c16.781,0,30.435,13.653,30.435,30.435
	C137.551,395.203,123.898,408.855,107.116,408.855z"/>
<path d="M401.607,332.777c-25.167,0-45.643,20.475-45.643,45.643c0,25.168,20.475,45.643,45.643,45.643
	c25.168,0,45.643-20.475,45.643-45.643C447.249,353.253,426.774,332.777,401.607,332.777z M401.607,408.855
	c-16.781,0-30.435-13.653-30.435-30.435c0-16.781,13.653-30.435,30.435-30.435c16.782,0,30.435,13.653,30.435,30.435
	C432.041,395.203,418.388,408.855,401.607,408.855z"/>
<path d="M397.089,197.457c2.259,0,4.401-1.005,5.846-2.741s2.043-4.026,1.631-6.247l-17.55-94.796
	c-0.667-3.604-3.811-6.22-7.477-6.22h-73.716c-4.199,0-7.604,3.405-7.604,7.604v94.796c0,4.199,3.405,7.604,7.604,7.604
	L397.089,197.457L397.089,197.457z M313.426,102.661h59.787l14.734,79.588h-74.521v-79.588H313.426z"/>
<path d="M180.748,276.858c0.941,0.389,1.928,0.579,2.909,0.579c1.979,0,3.924-0.773,5.379-2.227l76.939-76.939
	c2.97-2.97,2.97-7.784,0-10.753l-76.939-76.939c-2.175-2.176-5.446-2.825-8.286-1.649c-2.842,1.177-4.694,3.95-4.694,7.025v32.838
	H66.563c-4.199,0-7.604,3.405-7.604,7.604v72.994c0,4.199,3.405,7.604,7.604,7.604h45.469c4.199,0,7.604-3.405,7.604-7.604
	s-3.405-7.604-7.604-7.604H74.167v-57.786h109.491c4.199,0,7.604-3.405,7.604-7.604v-22.085l58.582,58.582l-58.582,58.582v-22.085
	c0-4.199-3.405-7.604-7.604-7.604h-46.28c-4.199,0-7.604,3.405-7.604,7.604s3.405,7.604,7.604,7.604h38.676v32.838
	C176.054,272.908,177.907,275.68,180.748,276.858z"/>
<g>
</g>
<g>
</g>
<g>
</g>
<g>
</g>
<g>
</g>
<g>
</g>
<g>
</g>
<g>
</g>
<g>
</g>
<g>
</g>
<g>
</g>
<g>
</g>
<g>
</g>
<g>
</g>
<g>
</g>
</svg>
