<?xml version="1.0" encoding="iso-8859-1"?>
<!-- Generator: Adobe Illustrator 19.0.0, SVG Export Plug-In . SVG Version: 6.00 Build 0)  -->
<svg version="1.1" id="Capa_1" xmlns="http://www.w3.org/2000/svg" xmlns:xlink="http://www.w3.org/1999/xlink" x="0px" y="0px"
	 viewBox="0 0 512.355 512.355" style="enable-background:new 0 0 512.355 512.355;" xml:space="preserve">
<g>
	<g>
		<path d="M435.048,347.179l6.1-6.1c30.177-30.096,30.243-78.958,0.146-109.135c-30.096-30.177-78.958-30.243-109.135-0.146
			c-0.049,0.049-0.099,0.099-0.148,0.148l-6.099,6.099l-36.467-36.466l12.166-12.166c29.722-29.733,70.093-46.356,112.134-46.171
			c4.258,3.267,9.462,5.06,14.829,5.108c0.225,0,0.475,0.004,0.717,0c6.729,0.004,13.18-2.683,17.917-7.463l0.017-0.012
			c10.002-10.047,9.998-26.29-0.009-36.333L350.14,7.471C345.346,2.694,338.857,0.008,332.09,0
			c-6.832,0.034-13.385,2.713-18.283,7.475c-8.965,9.022-9.969,23.249-2.358,33.44c0.182,42.049-16.44,82.428-46.171,112.164
			l-12.167,12.167l-6.1-6.1c-10.06-9.965-26.271-9.967-36.333-0.004c-10.011,10.044-10.011,26.294,0,36.338l6.1,6.1l-36.467,36.466
			l-6.1-6.1c-4.752-4.836-11.266-7.535-18.046-7.475c-14.178-0.067-25.725,11.372-25.792,25.549
			c-0.032,6.843,2.669,13.416,7.504,18.259l6.1,6.1l-72.833,72.833C56.62,361.651,48.477,381.3,48.531,401.779
			c-0.006,42.619,34.539,77.174,77.158,77.18c20.475,0.003,40.112-8.132,54.588-22.613l72.833-72.833l36.467,36.467l-19.352,19.352
			c-3.397-1.679-7.138-2.544-10.928-2.527c-6.86-0.107-13.467,2.593-18.288,7.475c-10.017,10.04-10.017,26.293,0,36.333
			l24.267,24.267c4.677,4.747,11.052,7.437,17.717,7.475c0.229,0,0.463-0.004,0.692,0c6.734,0.005,13.19-2.687,17.925-7.475
			c7.657-7.706,9.629-19.399,4.924-29.191l19.376-19.376l6.1,6.1c4.677,4.747,11.052,7.437,17.717,7.475
			c0.225,0,0.458-0.004,0.692,0c6.734,0.005,13.19-2.687,17.925-7.475c10.017-10.04,10.017-26.293,0-36.333l-6.1-6.1l36.469-36.465
			l6.094,6.094c4.682,4.752,11.063,7.443,17.733,7.479c0.217,0.004,0.45,0,0.667,0c6.738,0.006,13.199-2.684,17.942-7.471
			l0.008-0.009c10.002-10.046,9.998-26.288-0.008-36.329L435.048,347.179z M344.078,244.013
			c23.472-23.473,61.529-23.474,85.002-0.002s23.474,61.529,0.002,85.002l-6.1,6.1l-12.2-12.2l6.1-6.1
			c16.758-16.712,16.795-43.844,0.084-60.602s-43.844-16.795-60.602-0.084c-0.029,0.029-0.057,0.057-0.086,0.086l-6.099,6.099
			l-12.2-12.2L344.078,244.013z M404.815,304.746l-6.101,6.099l-36.469-36.467l6.099-6.099c10.07-10.071,26.398-10.072,36.469-0.002
			C414.884,278.347,414.885,294.675,404.815,304.746z M325.873,19.546c1.611-1.62,3.811-2.515,6.096-2.479h0.121
			c2.266-0.116,4.464,0.793,5.987,2.475l97.063,97.063c3.365,3.371,3.369,8.829,0.008,12.204c-1.61,1.618-3.809,2.512-6.092,2.475
			h-0.242c-2.207-0.007-4.32-0.897-5.867-2.471l-97.071-97.07C322.516,28.372,322.514,22.918,325.873,19.546z M277.344,165.146
			c28.895-28.711,46.801-66.649,50.6-107.205l68.8,68.804c-40.556,3.795-78.494,21.702-107.2,50.6l-12.166,12.166l-12.201-12.199
			L277.344,165.146z M228.844,213.646l12.2,12.2l-36.467,36.467l-12.2-12.2L228.844,213.646z M277.377,335.113l-12.2-12.2
			l36.467-36.467l12.2,12.2L277.377,335.113z M325.91,310.713l36.467,36.467l-36.466,36.466l-36.467-36.466L325.91,310.713z
			 M253.111,310.846l-36.467-36.467l36.467-36.467l36.467,36.467L253.111,310.846z M168.211,444.279
			c-23.472,23.472-61.528,23.472-85,0c-23.472-23.472-23.472-61.528,0-85l72.834-72.833l12.2,12.2l-42.5,42.5l-24.267,24.267
			l-6.067,6.067c-16.734,16.734-16.734,43.866,0,60.6c16.734,16.734,43.866,16.734,60.6,0l6.067-6.067l24.267-24.267l42.5-42.5
			l12.2,12.2L168.211,444.279z M119.578,371.446l12.2-12.2l36.467,36.467l-12.2,12.2L119.578,371.446z M143.977,419.979
			l-0.033,0.033c-10.079,10.061-26.406,10.046-36.467-0.034c-10.047-10.066-10.047-26.367,0-36.433l0.033-0.033L143.977,419.979z
			 M143.844,347.179l36.467-36.467l36.467,36.467l-36.467,36.467L143.844,347.179z M289.544,492.813L289.544,492.813
			c-1.624,1.672-3.884,2.572-6.212,2.475c-2.241-0.02-4.386-0.907-5.987-2.475l-24.267-24.267c-3.363-3.372-3.363-8.828,0-12.2
			c1.633-1.664,3.891-2.562,6.221-2.475c2.253-0.054,4.424,0.844,5.979,2.475l24.267,24.267
			C292.906,483.984,292.906,489.441,289.544,492.813z M295.577,462.513l-12.2-12.2l18.267-18.267l12.2,12.2L295.577,462.513z
			 M356.277,450.346c-1.668,1.604-3.898,2.493-6.212,2.475c-2.243-0.009-4.393-0.897-5.987-2.475l-12.134-12.134l-24.267-24.267
			l-48.533-48.533l-24.267-24.267l-48.533-48.533l-24.266-24.266l-12.134-12.133c-3.339-3.381-3.339-8.819,0-12.2
			c1.586-1.733,3.878-2.645,6.221-2.475c2.243-0.003,4.394,0.888,5.979,2.475l12.133,12.133l24.267,24.267l48.533,48.533
			l24.267,24.267l48.533,48.533l24.267,24.267l12.133,12.133C359.64,441.518,359.64,446.974,356.277,450.346z M350.177,407.913
			l-12.2-12.2l36.467-36.467l12.2,12.2L350.177,407.913z M429.073,377.55c-1.609,1.614-3.804,2.506-6.083,2.471h-0.116
			c-2.254,0.04-4.423-0.856-5.992-2.475l-12.133-12.133l0,0l-1.734-1.733l-180.27-180.267c-3.344-3.379-3.344-8.821,0-12.2h0
			c1.609-1.619,3.809-2.513,6.092-2.475h0.129c2.237,0.027,4.378,0.913,5.979,2.475l12.133,12.133l0,0l24.267,24.267l0.002,0.002
			l48.528,48.527l0.004,0.005l24.267,24.267l0.007,0.005l48.52,48.518l0.007,0.01l22.537,22.534l13.867,13.867
			C432.442,368.722,432.438,374.18,429.073,377.55z"/>
	</g>
</g>
<g>
</g>
<g>
</g>
<g>
</g>
<g>
</g>
<g>
</g>
<g>
</g>
<g>
</g>
<g>
</g>
<g>
</g>
<g>
</g>
<g>
</g>
<g>
</g>
<g>
</g>
<g>
</g>
<g>
</g>
</svg>
